<?xml version="1.0"?>
<svg xmlns="http://www.w3.org/2000/svg" xmlns:xlink="http://www.w3.org/1999/xlink" width="512" height="512" viewBox="0 0 512 512"><defs><linearGradient id="a" data-name="New Gradient Swatch 1" x1="102.084" y1="553.916" x2="553.17" y2="102.83" gradientUnits="userSpaceOnUse"><stop offset="0" stop-color="#003f8a"/><stop offset="0.518" stop-color="#00d7df"/><stop offset="1" stop-color="#006df0"/></linearGradient><linearGradient id="b" x1="-5.916" y1="445.916" x2="445.17" y2="-5.17" xlink:href="#a"/><linearGradient id="c" x1="-125.916" y1="325.916" x2="325.17" y2="-125.17" xlink:href="#a"/><linearGradient id="d" x1="-97.916" y1="353.916" x2="353.17" y2="-97.17" xlink:href="#a"/><linearGradient id="e" x1="-69.916" y1="381.916" x2="381.17" y2="-69.17" xlink:href="#a"/><linearGradient id="f" x1="-41.916" y1="409.916" x2="409.17" y2="-41.17" xlink:href="#a"/><linearGradient id="g" x1="39.084" y1="490.916" x2="490.17" y2="39.83" xlink:href="#a"/><linearGradient id="h" x1="-19.704" y1="432.128" x2="431.382" y2="-18.958" xlink:href="#a"/></defs><g><path d="M208,464H160a8,8,0,0,0,0,16h48a8,8,0,0,0,0-16Z" fill="url(#a)"/><path d="M460,43.08a24,24,0,0,0-32.79,8.79L328,223.71V36A28.031,28.031,0,0,0,300,8H68A28.031,28.031,0,0,0,40,36V476a28.031,28.031,0,0,0,28,28H300a28.031,28.031,0,0,0,28-28V319.71L468.79,75.87A24.043,24.043,0,0,0,460,43.08ZM221.75,24l-4,16h-67.5l-4-16ZM312,476a12.01,12.01,0,0,1-12,12H68a12.01,12.01,0,0,1-12-12V36A12.01,12.01,0,0,1,68,24h61.75l6.49,25.94A8,8,0,0,0,144,56h80a8,8,0,0,0,7.76-6.06L238.25,24H300a12.01,12.01,0,0,1,12,12V251.42L227.21,398.28a7.921,7.921,0,0,0-1.05,3.52l-2.15,35.71a8.009,8.009,0,0,0,12.4,7.16l29.85-19.72a7.947,7.947,0,0,0,2.52-2.67L312,347.43Zm-56.13-63.36-14.93,9.86,1.08-17.86L421.07,94.51l13.86,8ZM454.93,67.87l-12,20.78-13.86-8,12-20.78a8,8,0,1,1,13.86,8Z" fill="url(#b)"/><path d="M80,128h32a8,8,0,0,0,8-8V88a8,8,0,0,0-8-8H80a8,8,0,0,0-8,8v32A8,8,0,0,0,80,128Zm8-32h16v16H88Z" fill="url(#c)"/><path d="M80,184h32a8,8,0,0,0,8-8V144a8,8,0,0,0-8-8H80a8,8,0,0,0-8,8v32A8,8,0,0,0,80,184Zm8-32h16v16H88Z" fill="url(#d)"/><path d="M80,240h32a8,8,0,0,0,8-8V200a8,8,0,0,0-8-8H80a8,8,0,0,0-8,8v32A8,8,0,0,0,80,240Zm8-32h16v16H88Z" fill="url(#e)"/><path d="M120,288V256a8,8,0,0,0-8-8H80a8,8,0,0,0-8,8v32a8,8,0,0,0,8,8h32A8,8,0,0,0,120,288Zm-16-8H88V264h16Z" fill="url(#f)"/><path d="M194,448a8,8,0,0,0,0-16c-25.552,0-29.093-5.288-29.108-5.315-.145-.8,1.191-3.4,2.765-5.028.145-.145.283-.295.417-.45,6.269-7.314,26-32.347,16.7-47.4-7.556-12.228-26.853-9.037-40.712-5.572-15.938,3.985-27.13,2.906-33.269-3.206-8.993-8.956-6.681-28.365-5.028-35.1a8,8,0,0,0-15.524-3.873c-.336,1.34-8.011,33.037,9.215,50.264,10.385,10.382,26.7,12.884,48.486,7.437,19.454-4.864,23.21-1.548,23.218-1.546.017.032,1.33,3.72-5.55,15.1a116.451,116.451,0,0,1-9.543,13.316c-1.925,2.022-10.307,11.667-5.963,22.155C154.4,443.165,168.351,448,194,448Z" fill="url(#g)"/><path d="M184.061,237.99l-15.216,30.432A8,8,0,0,0,176,280h80a8,8,0,0,0,7.155-11.578L241.343,224.8a63.954,63.954,0,1,0-57.282,13.192Zm59,26.01H188.944l12.013-24.024a63.607,63.607,0,0,0,26.9-6.367ZM209.41,223.068,216,209.889l4.705,9.41A47.658,47.658,0,0,1,209.41,223.068ZM200,128a47.977,47.977,0,0,1,33.913,81.937l-10.758-21.515a8,8,0,0,0-14.31,0l-17.4,34.8A47.994,47.994,0,0,1,200,128Z" fill="url(#h)"/></g></svg>
