<svg height="512" viewBox="0 0 64 64" width="512" xmlns="http://www.w3.org/2000/svg" xmlns:xlink="http://www.w3.org/1999/xlink"><linearGradient id="linear-gradient" gradientUnits="userSpaceOnUse" x1="-2.083" x2="61.584" y1="64.583" y2=".916"><stop offset="0" stop-color="#003f8a"/><stop offset=".518" stop-color="#00d7df"/><stop offset="1" stop-color="#006df0"/></linearGradient><linearGradient id="linear-gradient-2" x1="-8.583" x2="55.084" xlink:href="#linear-gradient" y1="58.083" y2="-5.584"/><linearGradient id="linear-gradient-3" x1="-5.083" x2="58.584" xlink:href="#linear-gradient" y1="61.583" y2="-2.084"/><g id="Responsive-2" data-name="Responsive"><path d="m60 11h-56a3 3 0 0 0 -3 3v28a3 3 0 0 0 3 3h21.523l-1.2 3h-2.323a1 1 0 0 0 -.949.684l-1 3a1 1 0 0 0 .949 1.316h22a1 1 0 0 0 .949-1.316l-1-3a1 1 0 0 0 -.949-.684h-2.323l-1.2-3h5.523v5a3 3 0 0 0 3 3h10a3 3 0 0 0 3-3v-5a3 3 0 0 0 3-3v-28a3 3 0 0 0 -3-3zm-57 3a1 1 0 0 1 1-1h56a1 1 0 0 1 1 1v23h-1v-6a3 3 0 0 0 -3-3h-10a3 3 0 0 0 -3 3v6h-41zm50.613 16-.334 1h-2.558l-.334-1zm-12 21h-19.226l.334-1h18.558zm-4.09-3h-11.046l1.2-3h8.646zm-33.523-5a1 1 0 0 1 -1-1v-3h41v4zm54 7a1 1 0 0 1 -1 1h-10a1 1 0 0 1 -1-1v-19a1 1 0 0 1 1-1h1.279l.772 2.316a1 1 0 0 0 .949.684h4a1 1 0 0 0 .949-.684l.772-2.316h1.279a1 1 0 0 1 1 1zm3-8a1 1 0 0 1 -1 1v-4h1z" fill="url(#linear-gradient)"/><path d="m12 40h-7a1 1 0 0 0 0 2h7a1 1 0 0 0 0-2z" fill="url(#linear-gradient-2)"/><path d="m16 40h-1a1 1 0 0 0 0 2h1a1 1 0 0 0 0-2z" fill="url(#linear-gradient-3)"/></g></svg>